<mxfile>
    <diagram id="lQYMzpSj_-mgoBDKqIUb" name="Page-1">
        <mxGraphModel dx="2201" dy="731" grid="1" gridSize="10" guides="1" tooltips="1" connect="1" arrows="1" fold="1" page="1" pageScale="1" pageWidth="850" pageHeight="1100" math="0" shadow="0">
            <root>
                <mxCell id="0"/>
                <mxCell id="1" parent="0"/>
                <mxCell id="7" value="" style="ellipse;shape=doubleEllipse;whiteSpace=wrap;html=1;aspect=fixed;strokeWidth=6;strokeColor=#FF8000;fillColor=none;" vertex="1" parent="1">
                    <mxGeometry x="240" y="60" width="310" height="310" as="geometry"/>
                </mxCell>
                <mxCell id="8" value="Promotor" style="rounded=1;whiteSpace=wrap;html=1;strokeColor=#314354;strokeWidth=6;fillColor=#647687;fontColor=#ffffff;" vertex="1" parent="1">
                    <mxGeometry x="335" y="40" width="120" height="60" as="geometry"/>
                </mxCell>
                <mxCell id="9" value="Restriction site" style="rounded=1;whiteSpace=wrap;html=1;strokeColor=#B20000;strokeWidth=6;fillColor=#e51400;fontColor=#ffffff;rotation=-65;" vertex="1" parent="1">
                    <mxGeometry x="234.23" y="100.94" width="80" height="60" as="geometry"/>
                </mxCell>
                <mxCell id="10" value="Restriction site" style="rounded=1;whiteSpace=wrap;html=1;strokeColor=#B20000;strokeWidth=6;fillColor=#e51400;fontColor=#ffffff;rotation=45;" vertex="1" parent="1">
                    <mxGeometry x="480" y="100.94" width="80" height="60" as="geometry"/>
                </mxCell>
                <mxCell id="11" value="" style="endArrow=classic;html=1;strokeWidth=5;fillColor=#60a917;strokeColor=#2D7600;" edge="1" parent="1">
                    <mxGeometry width="50" height="50" relative="1" as="geometry">
                        <mxPoint x="400" y="20" as="sourcePoint"/>
                        <mxPoint x="510" y="20" as="targetPoint"/>
                    </mxGeometry>
                </mxCell>
                <mxCell id="12" value="" style="endArrow=classic;html=1;strokeWidth=5;fillColor=#60a917;strokeColor=#2D7600;" edge="1" parent="1">
                    <mxGeometry width="50" height="50" relative="1" as="geometry">
                        <mxPoint x="390" y="20" as="sourcePoint"/>
                        <mxPoint x="290" y="20" as="targetPoint"/>
                    </mxGeometry>
                </mxCell>
                <mxCell id="14" value="&lt;h1&gt;Promotor orientation&lt;/h1&gt;&lt;p&gt;The promotor within the plasmid backbone we wish to use will either have + or - orrientation which will determine which restriction site we use to linearize the plasmid&lt;/p&gt;" style="text;html=1;strokeColor=none;fillColor=none;spacing=5;spacingTop=-20;whiteSpace=wrap;overflow=hidden;rounded=0;" vertex="1" parent="1">
                    <mxGeometry x="580" y="10" width="190" height="170" as="geometry"/>
                </mxCell>
                <mxCell id="15" value="&lt;h1&gt;+ Promotor&lt;/h1&gt;&lt;p&gt;Use restriction site with 5' position greater than the promotor&lt;/p&gt;" style="text;html=1;strokeColor=none;fillColor=none;spacing=5;spacingTop=-20;whiteSpace=wrap;overflow=hidden;rounded=0;" vertex="1" parent="1">
                    <mxGeometry x="590" y="300" width="190" height="120" as="geometry"/>
                </mxCell>
                <mxCell id="16" value="" style="ellipse;shape=doubleEllipse;whiteSpace=wrap;html=1;aspect=fixed;strokeWidth=6;strokeColor=#FF8000;fillColor=none;" vertex="1" parent="1">
                    <mxGeometry x="517.89" y="430" width="310" height="310" as="geometry"/>
                </mxCell>
                <mxCell id="17" value="Promotor" style="rounded=1;whiteSpace=wrap;html=1;strokeColor=#314354;strokeWidth=6;fillColor=#647687;fontColor=#ffffff;" vertex="1" parent="1">
                    <mxGeometry x="612.89" y="410" width="120" height="60" as="geometry"/>
                </mxCell>
                <mxCell id="18" value="Restriction site" style="rounded=1;whiteSpace=wrap;html=1;strokeColor=#B20000;strokeWidth=6;fillColor=#e51400;fontColor=#ffffff;rotation=-65;" vertex="1" parent="1">
                    <mxGeometry x="512.12" y="470.94" width="80" height="60" as="geometry"/>
                </mxCell>
                <mxCell id="19" value="" style="rounded=1;whiteSpace=wrap;html=1;strokeWidth=6;fontColor=#ffffff;rotation=45;fillColor=#FFFFFF;strokeColor=#FFFFFF;" vertex="1" parent="1">
                    <mxGeometry x="757.89" y="470.94" width="80" height="60" as="geometry"/>
                </mxCell>
                <mxCell id="22" value="" style="endArrow=classic;html=1;strokeWidth=5;fillColor=#60a917;strokeColor=#2D7600;" edge="1" parent="1">
                    <mxGeometry width="50" height="50" relative="1" as="geometry">
                        <mxPoint x="670" y="390" as="sourcePoint"/>
                        <mxPoint x="780" y="390" as="targetPoint"/>
                    </mxGeometry>
                </mxCell>
                <mxCell id="28" value="" style="ellipse;shape=doubleEllipse;whiteSpace=wrap;html=1;aspect=fixed;strokeWidth=6;strokeColor=#FF8000;fillColor=none;" vertex="1" parent="1">
                    <mxGeometry x="-44.23000000000002" y="420" width="310" height="310" as="geometry"/>
                </mxCell>
                <mxCell id="29" value="Promotor" style="rounded=1;whiteSpace=wrap;html=1;strokeColor=#314354;strokeWidth=6;fillColor=#647687;fontColor=#ffffff;" vertex="1" parent="1">
                    <mxGeometry x="50.76999999999998" y="400" width="120" height="60" as="geometry"/>
                </mxCell>
                <mxCell id="30" value="" style="rounded=1;whiteSpace=wrap;html=1;strokeWidth=6;fontColor=#ffffff;rotation=-65;fillColor=#FFFFFF;strokeColor=#FFFFFF;" vertex="1" parent="1">
                    <mxGeometry x="-50.00000000000003" y="460.94" width="80" height="60" as="geometry"/>
                </mxCell>
                <mxCell id="31" value="Restriction site" style="rounded=1;whiteSpace=wrap;html=1;strokeColor=#B20000;strokeWidth=6;fillColor=#e51400;fontColor=#ffffff;rotation=45;" vertex="1" parent="1">
                    <mxGeometry x="195.76999999999998" y="460.94" width="80" height="60" as="geometry"/>
                </mxCell>
                <mxCell id="33" value="" style="endArrow=classic;html=1;strokeWidth=5;fillColor=#60a917;strokeColor=#2D7600;" edge="1" parent="1">
                    <mxGeometry width="50" height="50" relative="1" as="geometry">
                        <mxPoint x="105.76999999999998" y="380" as="sourcePoint"/>
                        <mxPoint x="5.769999999999982" y="380" as="targetPoint"/>
                    </mxGeometry>
                </mxCell>
                <mxCell id="34" value="&lt;h1&gt;&amp;nbsp;- Promotor&amp;nbsp;&lt;/h1&gt;&lt;p&gt;Use restriction site with 5' position less than promotor - restriction site end location to avoid overlap with the promotor&amp;nbsp;&lt;/p&gt;" style="text;html=1;strokeColor=none;fillColor=none;spacing=5;spacingTop=-20;whiteSpace=wrap;overflow=hidden;rounded=0;" vertex="1" parent="1">
                    <mxGeometry x="15.77" y="250" width="190" height="120" as="geometry"/>
                </mxCell>
            </root>
        </mxGraphModel>
    </diagram>
</mxfile>